<?xml version="1.0" encoding="UTF-8"?>
<svg xmlns="http://www.w3.org/2000/svg" viewBox="0 0 280 299" width="32" height="32">
  <defs>
    <style>
      .c1 { fill: #0075b3; }
      .c2 { fill: #f90; }
    </style>
  </defs>
  <g transform="translate(0,0)">
    <rect width="280" height="299" fill="#fff"/>
    <rect class="c2" x="19.87" y="40.08" width="5.34" height="62.07" transform="translate(-32.99 21.31) rotate(-30.52)"/>
    <rect class="c2" x="0" y="37.6" width="13.56" height="13.56" rx="6.78" ry="6.78"/>
    <path class="c2" d="M37.68,90.01h0c-3.73,0-6.78,3.05-6.78,6.78,0,2.54,1.43,4.74,3.52,5.9.84-4.12,5.13-8.24,3.07-12.36,2.06,4.12-2.22,8.24-3.07,12.36.97.54,2.08.88,3.26.88h0"/>
    <path class="c1" d="M157.04,250.79c-55.35,0-106.13-36.98-121.12-92.93-8.67-32.34-4.22-66.13,12.52-95.13C65.19,33.74,92.22,12.99,124.57,4.33,156.9-4.34,190.69.11,219.69,16.85c29,16.74,49.74,43.78,58.41,76.12,17.89,66.77-21.87,135.64-88.64,153.53-10.82,2.9-21.71,4.29-32.42,4.29ZM157.21,5.34c-10.43,0-20.92,1.37-31.26,4.14C62.03,26.61,23.95,92.55,41.08,156.48c17.13,63.92,83.07,101.99,146.99,84.87,63.92-17.13,101.99-83.07,84.87-146.99h0c-8.3-30.97-28.16-56.85-55.92-72.88-18.49-10.68-39.02-16.13-59.81-16.13Z"/>
    <rect class="c1" x="7.29" y="112.06" width="88.92" height="5.34" transform="translate(-73.19 129.97) rotate(-72.68)"/>
    <polygon class="c1" points="187.97 246.47 102.52 219.81 36.69 159.13 40.31 155.2 105.26 215.07 189.56 241.37 187.97 246.47"/>
    <polygon class="c1" points="190.73 245.73 186.8 242.11 246.67 177.17 272.97 92.86 278.07 94.46 251.41 179.91 190.73 245.73"/>
    <polygon class="c1" points="273.71 95.62 208.77 35.76 124.46 9.45 126.05 4.36 211.51 31.02 277.33 91.7 273.71 95.62"/>
    <rect class="c1" x="50.66" y="36.93" width="88.92" height="5.34" transform="translate(1.54 82.71) rotate(-47.33)"/>
    <path class="c1" d="M174.43,190.41l-82.41-47.58,47.58-82.41,82.41,47.58-47.58,82.41ZM99.32,140.88l73.16,42.24,42.24-73.16-73.16-42.24-42.24,73.16Z"/>
    <path class="c1" d="M93.94,145.03l-32.85-75,81.27-8.86,17.94,66.13-66.36,17.72ZM68.89,74.55l28.09,64.14,56.75-15.16-15.34-56.55-69.5,7.57Z"/>
    <path class="c1" d="M101.63,221.35l-8.86-81.27,66.13-17.94,17.72,66.36-75,32.85ZM98.57,144.04l7.58,69.5,64.14-28.1-15.16-56.75-56.55,15.34Z"/>
    <path class="c1" d="M171.68,189.66l-17.94-66.13,66.35-17.72,32.86,75-81.27,8.86ZM160.29,127.3l15.34,56.55,69.5-7.58-28.1-64.14-56.75,15.16Z"/>
    <polygon class="c1" points="39.47 98.78 35.9 94.8 62.18 71.21 59.59 47.44 64.9 46.86 67.79 73.36 39.47 98.78"/>
    <polygon class="c1" points="126.4 246.52 102.81 220.24 79.04 222.83 78.46 217.52 104.96 214.63 130.37 242.96 126.4 246.52"/>
    <polygon class="c1" points="249.11 203.96 246.23 177.47 274.55 152.05 278.12 156.02 251.84 179.61 254.42 203.38 249.11 203.96"/>
    <polygon class="c1" points="209.06 36.19 183.65 7.87 187.62 4.3 211.21 30.59 234.98 28 235.56 33.31 209.06 36.19"/>
    <line class="c2" x1="212.46" y1="58.51" x2="212.05" y2="53.14"/>
    <polyline class="c2" points="212.05 53.14 263.91 56.02 241.53 104.94 236.68 102.72 255.8 60.92 212.46 58.51"/>
    <polygon class="c2" points="153.18 297.96 104.01 214.57 108.62 211.87 152.58 286.43 181.24 223.81 186.1 226.03 153.18 297.96"/>
    <polygon class="c2" points="104.01 214.57 66.54 151.02 71.13 148.3 108.62 211.87 104.01 214.57"/>
    <rect class="c2" x="146.1" y="285.41" width="13.56" height="13.56" rx="6.78" ry="6.78"/>
    <rect class="c2" x="253.08" y="51.69" width="13.56" height="13.56" rx="6.78" ry="6.78"/>
    <rect class="c2" x="166.79" y="240.21" width="13.56" height="13.56" rx="6.78" ry="6.78"/>
    <rect class="c2" x="117.48" y="236.89" width="13.56" height="13.56" rx="6.78" ry="6.78"/>
    <rect class="c2" x="69.34" y="-17.32" width="5.34" height="130.67" transform="translate(20.06 117.24) rotate(-86.81)"/>
    <rect class="c2" x="55.47" y="40.69" width="13.56" height="13.56" rx="6.78" ry="6.78"/>
    <rect class="c1" x="154.34" y="2.73" width="5.34" height="245.38" transform="translate(-27.11 44.91) rotate(-15)"/>
    <rect class="c1" x="34.32" y="122.74" width="245.38" height="5.34" transform="translate(-27.11 44.91) rotate(-15)"/>
    <path class="c1" d="M155.13,128.69l-17.72-66.36,75-32.86,8.86,81.27-66.13,17.94ZM143.74,65.39l15.16,56.75,56.55-15.34-7.58-69.5-64.14,28.1Z"/>
  </g>
</svg>
