<?xml version="1.0" encoding="UTF-8"?>
<svg id="Camada_2" data-name="Camada 2" xmlns="http://www.w3.org/2000/svg" viewBox="0 0 666.25 298.97">
  <defs>
    <style>
      .cls-1 {
        fill: #0075b3;
      }

      .cls-2 {
        fill: #f90;
      }
    </style>
  </defs>
  <g id="Camada_1-2" data-name="Camada 1">
    <g>
      <g>
        <rect class="cls-2" x="19.87" y="40.08" width="5.34" height="62.07" transform="translate(-32.99 21.31) rotate(-30.52)"/>
        <rect class="cls-2" x="0" y="37.6" width="13.56" height="13.56" rx="6.78" ry="6.78"/>
        <path class="cls-2" d="M37.68,90.01h0c-3.73,0-6.78,3.05-6.78,6.78,0,2.54,1.43,4.74,3.52,5.9.84-4.12,5.13-8.24,3.07-12.36,2.06,4.12-2.22,8.24-3.07,12.36.97.54,2.08.88,3.26.88h0"/>
        <path class="cls-1" d="M157.04,250.79c-55.35,0-106.13-36.98-121.12-92.93-8.67-32.34-4.22-66.13,12.52-95.13C65.19,33.74,92.22,12.99,124.57,4.33,156.9-4.34,190.69.11,219.69,16.85c29,16.74,49.74,43.78,58.41,76.12,17.89,66.77-21.87,135.64-88.64,153.53-10.82,2.9-21.71,4.29-32.42,4.29ZM157.21,5.34c-10.43,0-20.92,1.37-31.26,4.14C62.03,26.61,23.95,92.55,41.08,156.48c17.13,63.92,83.07,101.99,146.99,84.87,63.92-17.13,101.99-83.07,84.87-146.99h0c-8.3-30.97-28.16-56.85-55.92-72.88-18.49-10.68-39.02-16.13-59.81-16.13Z"/>
        <rect class="cls-1" x="7.29" y="112.06" width="88.92" height="5.34" transform="translate(-73.19 129.97) rotate(-72.68)"/>
        <polygon class="cls-1" points="187.97 246.47 102.52 219.81 36.69 159.13 40.31 155.2 105.26 215.07 189.56 241.37 187.97 246.47"/>
        <polygon class="cls-1" points="190.73 245.73 186.8 242.11 246.67 177.17 272.97 92.86 278.07 94.46 251.41 179.91 190.73 245.73"/>
        <polygon class="cls-1" points="273.71 95.62 208.77 35.76 124.46 9.45 126.05 4.36 211.51 31.02 277.33 91.7 273.71 95.62"/>
        <rect class="cls-1" x="50.66" y="36.93" width="88.92" height="5.34" transform="translate(1.54 82.71) rotate(-47.33)"/>
        <path class="cls-1" d="M174.43,190.41l-82.41-47.58,47.58-82.41,82.41,47.58-47.58,82.41ZM99.32,140.88l73.16,42.24,42.24-73.16-73.16-42.24-42.24,73.16Z"/>
        <path class="cls-1" d="M93.94,145.03l-32.85-75,81.27-8.86,17.94,66.13-66.36,17.72ZM68.89,74.55l28.09,64.14,56.75-15.16-15.34-56.55-69.5,7.57Z"/>
        <path class="cls-1" d="M101.63,221.35l-8.86-81.27,66.13-17.94,17.72,66.36-75,32.85ZM98.57,144.04l7.58,69.5,64.14-28.1-15.16-56.75-56.55,15.34Z"/>
        <path class="cls-1" d="M171.68,189.66l-17.94-66.13,66.35-17.72,32.86,75-81.27,8.86ZM160.29,127.3l15.34,56.55,69.5-7.58-28.1-64.14-56.75,15.16Z"/>
        <polygon class="cls-1" points="39.47 98.78 35.9 94.8 62.18 71.21 59.59 47.44 64.9 46.86 67.79 73.36 39.47 98.78"/>
        <polygon class="cls-1" points="126.4 246.52 102.81 220.24 79.04 222.83 78.46 217.52 104.96 214.63 130.37 242.96 126.4 246.52"/>
        <polygon class="cls-1" points="249.11 203.96 246.23 177.47 274.55 152.05 278.12 156.02 251.84 179.61 254.42 203.38 249.11 203.96"/>
        <polygon class="cls-1" points="209.06 36.19 183.65 7.87 187.62 4.3 211.21 30.59 234.98 28 235.56 33.31 209.06 36.19"/>
        <line class="cls-2" x1="212.46" y1="58.51" x2="212.05" y2="53.14"/>
        <polyline class="cls-2" points="212.05 53.14 263.91 56.02 241.53 104.94 236.68 102.72 255.8 60.92 212.46 58.51"/>
        <polygon class="cls-2" points="153.18 297.96 104.01 214.57 108.62 211.87 152.58 286.43 181.24 223.81 186.1 226.03 153.18 297.96"/>
        <polygon class="cls-2" points="104.01 214.57 66.54 151.02 71.13 148.3 108.62 211.87 104.01 214.57"/>
        <rect class="cls-2" x="146.1" y="285.41" width="13.56" height="13.56" rx="6.78" ry="6.78"/>
        <rect class="cls-2" x="253.08" y="51.69" width="13.56" height="13.56" rx="6.78" ry="6.78"/>
        <rect class="cls-2" x="166.79" y="240.21" width="13.56" height="13.56" rx="6.78" ry="6.78"/>
        <rect class="cls-2" x="117.48" y="236.89" width="13.56" height="13.56" rx="6.78" ry="6.78"/>
        <rect class="cls-2" x="69.34" y="-17.32" width="5.34" height="130.67" transform="translate(20.06 117.24) rotate(-86.81)"/>
        <rect class="cls-2" x="55.47" y="40.69" width="13.56" height="13.56" rx="6.78" ry="6.78"/>
        <rect class="cls-1" x="154.34" y="2.73" width="5.34" height="245.38" transform="translate(-27.11 44.91) rotate(-15)"/>
        <rect class="cls-1" x="34.32" y="122.74" width="245.38" height="5.34" transform="translate(-27.11 44.91) rotate(-15)"/>
        <path class="cls-1" d="M155.13,128.69l-17.72-66.36,75-32.86,8.86,81.27-66.13,17.94ZM143.74,65.39l15.16,56.75,56.55-15.34-7.58-69.5-64.14,28.1Z"/>
      </g>
      <g>
        <g>
          <path class="cls-1" d="M341.04,226.23v3.59c1.88-2.91,3.89-4.06,7.18-4.06,5.47,0,9.28,4.19,9.28,10.17s-3.8,10.47-9.28,10.47c-1.54,0-2.95-.34-4.32-1.03-1.2-.6-1.8-1.11-2.87-2.52v12.31h-3.25v-28.94h3.25ZM341.04,236.4c0,4.32,2.61,7.18,6.5,7.18s6.5-3.03,6.5-7.52c0-2.31-.56-4.06-1.71-5.34-1.15-1.28-2.9-2.05-4.66-2.05-3.93,0-6.63,3.12-6.63,7.74Z"/>
          <path class="cls-1" d="M380.87,236.15c0,5.77-4.44,10.26-10.09,10.26s-9.96-4.28-9.96-10.34,4.1-10.3,10.09-10.3,9.96,4.32,9.96,10.39ZM364.16,236.1c0,4.36,2.69,7.31,6.71,7.31s6.67-3.04,6.67-7.31-2.65-7.35-6.63-7.35-6.75,2.95-6.75,7.35Z"/>
          <path class="cls-1" d="M389.06,226.23v3.33c.6-1.41,1.03-2.01,1.8-2.61.98-.77,2.35-1.2,3.76-1.2h.77v3.29c-.34-.04-.68-.04-.9-.04-1.75,0-3.29.81-4.27,2.26-.86,1.24-1.16,2.39-1.16,4.66v10h-3.25v-19.7h3.25Z"/>
          <path class="cls-1" d="M428.42,217.43h3.8l-9.91,28.51h-3.5l-9.62-28.51h3.76l7.65,22.65,7.82-22.65Z"/>
          <path class="cls-1" d="M448.97,226.23h3.25v19.7h-3.25v-3.8c-1.97,2.95-4.19,4.28-7.18,4.28-5.43,0-9.28-4.28-9.28-10.26s3.93-10.39,9.36-10.39c2.99,0,5.17,1.15,7.1,3.72v-3.25ZM437.55,231.02c-1.02,1.41-1.62,3.29-1.62,5.22,0,4.19,2.74,7.35,6.33,7.35s6.75-3.46,6.75-7.69-2.74-7.22-6.67-7.22c-2.14,0-3.63.73-4.79,2.35Z"/>
          <path class="cls-1" d="M461.99,226.23v3.33c.6-1.41,1.03-2.01,1.8-2.61.98-.77,2.35-1.2,3.76-1.2h.77v3.29c-.34-.04-.68-.04-.9-.04-1.75,0-3.29.81-4.27,2.26-.86,1.24-1.16,2.39-1.16,4.66v10h-3.25v-19.7h3.25Z"/>
          <path class="cls-1" d="M473.49,237.13c.17,1.67.47,2.52,1.28,3.59,1.28,1.75,3.16,2.69,5.3,2.69,2.44,0,4.74-1.32,5.9-3.38l2.86,1.07c-1.62,3.29-5,5.3-8.76,5.3-5.85,0-10.04-4.28-10.04-10.26s4.15-10.39,9.92-10.39,10,4.32,10,10.09c0,.26,0,.81-.04,1.28h-16.41ZM486.48,234.74c-.13-1.54-.43-2.39-1.11-3.38-1.24-1.67-3.25-2.69-5.43-2.69s-4.15,1.03-5.3,2.74c-.6.94-.85,1.75-1.11,3.33h12.95Z"/>
          <path class="cls-1" d="M497.5,247.99c0,2.69-.47,4.32-1.67,5.6-1.2,1.32-2.95,2.05-4.96,2.05h-.86v-3.08h.47c2.31-.08,3.72-1.8,3.76-4.57v-21.75h3.25v21.75ZM497.97,220.72c0,1.15-.94,2.05-2.09,2.05s-2.05-.9-2.05-2.1.9-2.09,2.09-2.09,2.05.94,2.05,2.14Z"/>
          <path class="cls-1" d="M522.5,236.15c0,5.77-4.44,10.26-10.09,10.26s-9.96-4.28-9.96-10.34,4.1-10.3,10.09-10.3,9.96,4.32,9.96,10.39ZM505.79,236.1c0,4.36,2.69,7.31,6.71,7.31s6.67-3.04,6.67-7.31-2.65-7.35-6.63-7.35-6.75,2.95-6.75,7.35Z"/>
          <path class="cls-1" d="M540.09,220.93v-3.08h16.16l-8.38,10.64c4.96,0,8.46,3.55,8.46,8.59,0,5.34-4.02,9.32-9.45,9.32-4.49,0-7.69-2.52-8.68-6.84l3.08-.56c.77,2.74,2.78,4.28,5.43,4.28,3.46,0,6.2-2.61,6.2-5.94s-2.56-5.81-6.28-5.81c-1.32,0-2.18.26-3.42.98l-1.41-1.24,8.25-10.34h-9.96Z"/>
          <path class="cls-1" d="M566.97,229.27c1.19-.43,1.75-.56,2.78-.56,4.74,0,8.42,3.72,8.42,8.55s-4.15,9.19-9.19,9.19-9.02-4.02-9.02-9.19c0-2.09.56-3.68,2.18-6.28l8.16-13.12h3.97l-7.31,11.41ZM563.33,237.26c0,3.33,2.52,5.98,5.73,5.98s5.77-2.61,5.77-5.86-2.52-5.77-5.68-5.77-5.81,2.48-5.81,5.64Z"/>
          <path class="cls-1" d="M598.89,237.34c0,3.21-.6,5.17-2.01,6.67-1.5,1.58-3.76,2.39-6.45,2.39s-5.09-.86-6.58-2.48c-1.5-1.58-1.88-3.2-1.88-7.52v-9.4c0-3.72.43-5.47,1.71-7.01,1.41-1.71,3.76-2.65,6.67-2.65,2.61,0,4.74.73,6.33,2.14,1.62,1.5,2.22,3.21,2.22,6.54v11.33ZM585.34,236.62c0,3.29.13,3.89,1.07,4.96.9,1.03,2.44,1.67,4.06,1.67,1.75,0,3.38-.73,4.19-1.88.64-.94.9-2.14.9-4.23v-10.9c0-2.22-.39-3.33-1.46-4.36-.94-.85-2.22-1.32-3.63-1.32-1.84,0-3.42.73-4.23,2.05-.72,1.03-.9,2.01-.9,4.49v9.53Z"/>
        </g>
        <g>
          <path class="cls-1" d="M391.97,171.54c-6.8,6.15-13.85,8.85-22.82,8.85-18.08,0-31.41-13.33-31.41-31.41s13.08-32.05,31.54-32.05c8.84,0,16.15,3.08,23.71,9.87l-10.89,9.87c-3.59-3.59-7.43-5.25-12.18-5.25-8.97,0-15.64,7.31-15.64,17.05s6.8,17.43,16.28,17.43c4.23,0,7.31-1.28,11.54-5l9.87,10.64Z"/>
          <path class="cls-1" d="M445.15,118.98h16.28v59.35h-16.28v-8.2c-5.51,7.05-11.92,10.25-20.64,10.25-16.66,0-28.59-12.95-28.59-31.02s12.56-32.43,29.87-32.43c8.08,0,13.59,2.82,19.35,9.61v-7.56ZM413.37,149.11c0,10.38,6.8,18.2,15.64,18.2s16.41-8.46,16.41-18.71-6.67-17.95-16.28-17.95-15.77,7.56-15.77,18.46Z"/>
          <path class="cls-1" d="M493.73,118.98v7.31c4.87-6.54,10.64-9.36,19.48-9.36,6.28,0,11.54,1.54,16.54,4.87,8.97,6.15,13.46,15.13,13.46,27.05,0,18.97-11.79,31.53-29.61,31.53-8.59,0-14.87-2.69-19.87-8.46v32.94h-16.28v-85.88h16.28ZM493.73,149.36c0,10.77,6.28,17.95,15.77,17.95s16.28-7.56,16.28-18.07-6.54-18.59-15.77-18.59-16.28,7.69-16.28,18.71Z"/>
          <path class="cls-1" d="M572.56,160.9c0,2.82,1.03,3.59,4.62,3.85h2.82v13.59h-12.95c-7.95-.26-10.89-3.46-10.76-11.28v-34.61h-6.8v-13.72h6.8v-15.9h16.28v15.9h7.44v13.72h-7.44v28.46Z"/>
          <path class="cls-1" d="M609.34,102.19c0,5-3.84,8.85-8.97,8.85s-9.1-3.85-9.1-8.97,3.84-9.1,9.1-9.1,8.97,3.85,8.97,9.23ZM608.44,178.33h-16.28v-59.35h16.28v59.35Z"/>
          <path class="cls-1" d="M649.97,136.16v-1.02c0-3.59-3.21-6.15-7.56-6.15-3.97,0-6.54,2.18-6.54,5.38,0,1.54.64,3.08,1.67,3.85,1.79,1.41,1.92,1.41,10.12,3.97,13.33,4.1,18.59,9.36,18.59,18.97,0,11.54-9.23,19.23-23.07,19.23s-22.69-7.18-23.33-19.48h15.64c.77,5.13,3.08,7.43,7.82,7.43,3.84,0,6.53-2.31,6.53-5.64,0-3.59-2.31-5.26-11.03-7.95-12.81-3.85-18.58-9.61-18.58-18.97,0-11.28,9.1-18.84,22.94-18.84s21.79,7.18,22.18,19.23h-15.38Z"/>
        </g>
      </g>
      <circle class="cls-2" cx="600.35" cy="102.12" r="9.27"/>
    </g>
  </g>
</svg>